<svg width="20" height="19" xmlns="http://www.w3.org/2000/svg"><path d="M5 12.5V1.447a.62.62 0 0 0-.625-.614H.625A.62.62 0 0 0 0 1.447V12.5h5zM1.875 3.904h1.25v3.684h-1.25V3.904zM0 14.167v3.571c0 .33.28.595.625.595h3.75c.345 0 .625-.266.625-.595v-3.571H0zM11.667 12.5V1.447a.62.62 0 0 0-.625-.614h-3.75a.62.62 0 0 0-.625.614V12.5h5zM8.542 3.904h1.25v3.684h-1.25V3.904zM6.667 14.167v3.571c0 .33.28.595.625.595h3.75c.345 0 .625-.266.625-.595v-3.571h-5zm12.753-.834l-5.253.725.573 3.737a.626.626 0 0 0 .26.414.683.683 0 0 0 .492.117l3.94-.543c.362-.05.614-.37.561-.713l-.574-3.737zm-.253-1.56L17.524.54a.632.632 0 0 0-.719-.533L13.043.55a.632.632 0 0 0-.536.714L14.149 12.5l5.018-.727zm-3.159-8.465l.547 3.745-1.253.182-.548-3.746 1.254-.181z" fill="#676767"/></svg>