<svg width="16" height="17" xmlns="http://www.w3.org/2000/svg"><path d="M15.903 7.677V.274c0-.164-.11-.274-.274-.274H.274C.11 0 0 .11 0 .274v7.403h15.903zM12.34 1.645h1.096v4.387H12.34V1.645zm-1.92 0h1.097v4.387H10.42V1.645zm-1.919 0h1.097v4.387H8.5V1.645zm-5.484 3.29h4.387v1.097H3.016V4.935zM0 8.226v7.403c0 .165.11.274.274.274h1.371v.823c0 .164.11.274.274.274.165 0 .275-.11.275-.274v-.823H13.71v.823c0 .164.11.274.274.274.164 0 .274-.11.274-.274v-.823h1.371c.165 0 .274-.11.274-.274V8.226H0zm3.565 6.032H2.468V9.871h1.097v4.387zm1.919 0H4.387V9.871h1.097v4.387zm1.92 0H6.305V9.871h1.097v4.387zm5.483 0H8.5v-1.097h4.387v1.097z" fill="#444"/></svg>