<svg width="17" height="17" xmlns="http://www.w3.org/2000/svg"><path d="M16.762 7.131l-2.178-.29a6.265 6.265 0 0 0-.61-1.47l1.336-1.745a.274.274 0 0 0-.024-.36l-1.551-1.552a.273.273 0 0 0-.36-.024l-1.746 1.335a6.265 6.265 0 0 0-1.47-.61L9.87.239A.275.275 0 0 0 9.597 0H7.403a.274.274 0 0 0-.271.238l-.29 2.178a6.265 6.265 0 0 0-1.47.61L3.625 1.69a.273.273 0 0 0-.36.024L1.713 3.265a.274.274 0 0 0-.024.36l1.335 1.746c-.261.457-.468.95-.61 1.47l-2.177.29A.275.275 0 0 0 0 7.403v2.194c0 .137.102.253.238.271l2.178.29c.141.52.347 1.013.61 1.47L1.69 13.375a.274.274 0 0 0 .024.36l1.551 1.552a.274.274 0 0 0 .36.024l1.746-1.335c.458.261.95.468 1.47.61l.29 2.177a.274.274 0 0 0 .272.238h2.194a.274.274 0 0 0 .271-.238l.29-2.178a6.265 6.265 0 0 0 1.47-.61l1.746 1.336a.274.274 0 0 0 .36-.024l1.552-1.551a.274.274 0 0 0 .024-.36l-1.335-1.746a6.28 6.28 0 0 0 .61-1.47l2.177-.29A.275.275 0 0 0 17 9.597V7.403a.274.274 0 0 0-.238-.271zM8.5 10.969a2.468 2.468 0 1 1 0-4.935 2.468 2.468 0 0 1 0 4.935z" fill="#676767"/></svg>