<svg width="31" height="38" viewBox="0 0 31 38" fill="none" xmlns="http://www.w3.org/2000/svg">
<path fill-rule="evenodd" clip-rule="evenodd" d="M30.9942 15.6471C30.9942 15.6471 24.3538 22.6212 24.3538 29.0588C24.3538 33.4041 26.5673 36.8824 26.5673 36.8824C26.5673 37.7876 25.4606 38 25.4606 38C22.5808 36.0139 19.547 35.721 17.7135 35.7716C17.7034 36.3577 17.4658 36.9163 17.0519 37.3271C16.6379 37.738 16.0807 37.9682 15.5003 37.9682C14.9199 37.9682 14.3627 37.738 13.9488 37.3271C13.5348 36.9163 13.2973 36.3577 13.2872 35.7716C11.4534 35.721 8.41949 36.0139 5.54011 38C5.54011 38 4.43338 37.7876 4.43338 36.8824C4.43338 36.8824 6.64684 33.4041 6.64684 29.0588C6.64618 22.6212 0.00580766 15.6471 0.00580766 15.6471C-0.0133592 15.4949 0.0151867 15.3405 0.0874297 15.2056C0.159673 15.0707 0.271978 14.9621 0.408546 14.895C1.87419 14.3083 8.59988 14.1211 13.2865 16.6987V15.0463C12.619 14.6574 12.0637 14.0992 11.6755 13.4269C11.2873 12.7546 11.0797 11.9916 11.0732 11.2134C11.0668 10.4352 11.2617 9.66875 11.6388 8.99001C12.0158 8.31127 12.5618 7.74374 13.2228 7.34361C12.6827 0.855447 8.85963 1.11765 8.85963 1.11765V0C13.2738 0 14.2363 4.20157 14.4052 6.84425C15.1236 6.65976 15.8764 6.65976 16.5948 6.84425C16.7637 4.20157 17.7261 0 22.1404 0V1.11765C22.1404 1.11765 18.3173 0.855447 17.7772 7.34361C18.4382 7.74374 18.9842 8.31127 19.3612 8.99001C19.7383 9.66875 19.9332 10.4352 19.9268 11.2134C19.9203 11.9916 19.7127 12.7546 19.3245 13.4269C18.9363 14.0992 18.381 14.6574 17.7135 15.0463V16.6987C22.4001 14.1211 29.1258 14.3083 30.5915 14.895C30.728 14.9621 30.8403 15.0707 30.9126 15.2056C30.9848 15.3405 31.0134 15.4949 30.9942 15.6471V15.6471Z" fill="#F56363"/>
<path d="M22.1346 1.12436C22.1346 1.12436 15.4942 1.12436 12.1873 3.3535L12.174 2.242C12.1756 2.27196 14.3875 0.00671007 22.1333 0.00671007C22.1297 0.097463 22.1346 1.12436 22.1346 1.12436ZM22.1346 0.00671007H22.1333C22.1337 -0.00178405 22.134 -0.00267817 22.1346 0.00671007ZM3.32018 15.6538C3.32018 15.6538 4.91133 14.5361 9.96055 14.5361V15.6538C9.96055 15.6538 6.64037 15.6538 3.32018 16.7714V15.6538ZM4.42691 11.1832L4.43588 10.0671C8.85382 10.0655 9.96055 11.1832 9.96055 11.1832L9.94572 12.2869C7.7471 11.1832 4.42426 11.3503 4.42691 11.1832ZM2.21346 5.59494L2.22242 4.47886C7.7471 4.4773 9.96055 6.71259 9.96055 6.71259L9.94572 7.81627C6.64037 5.59494 2.2108 5.76203 2.21346 5.59494ZM0 1.12436C0 1.12436 0.00486978 0.097463 0.00121758 0.00671007C7.7471 0.00671007 9.959 2.27196 9.96055 2.242L9.94727 3.3535C6.64037 1.12436 0 1.12436 0 1.12436ZM0.00121758 0.00671007H0C0 -0.00267817 0.000885558 -0.00178405 0.00121758 0.00671007ZM19.9121 4.47886L19.9211 5.59494C19.9238 5.76203 15.4942 5.59494 12.1888 7.81627L12.174 6.71259C12.174 6.71259 14.3875 4.4773 19.9121 4.47886ZM17.6987 10.0671L17.7076 11.1832C17.7103 11.3503 14.3875 11.1832 12.1888 12.2869L12.174 11.1832C12.174 11.1832 13.2807 10.0655 17.6987 10.0671ZM18.8144 16.7714C15.4942 15.6538 12.174 15.6538 12.174 15.6538V14.5361C17.2232 14.5361 18.8144 15.6538 18.8144 15.6538V16.7714Z" transform="translate(4.43274 17.8756)" fill="white"/>
</svg>
