<svg width="15" height="17" xmlns="http://www.w3.org/2000/svg"><g fill="#676767"><path d="M6.375 0H8.5v6.375H6.375z"/><path d="M12.431 4.037c-.425-.425-1.062-.318-1.487.107-.425.425-.319 1.062.106 1.487 1.063.957 1.7 2.444 1.7 3.931 0 2.976-2.338 5.313-5.313 5.313-2.974 0-5.312-2.338-5.312-5.313 0-1.487.638-2.974 1.806-3.93a1.138 1.138 0 0 0 .106-1.488 1.138 1.138 0 0 0-1.487-.107C.956 5.42 0 7.438 0 9.563A7.392 7.392 0 0 0 7.438 17a7.392 7.392 0 0 0 7.437-7.438c0-2.124-.85-4.143-2.444-5.524z"/></g></svg>